<svg style="width:120px;height:47px;"
    xmlns="http://www.w3.org/2000/svg"  viewBox="30 120 370 40">
        <path id="path0" d="M112.141 87.381 L 110.595 96.428 106.310 96.429 L 102.024 96.429 100.767 104.346 C 100.076 108.700,99.514 112.449,99.517 112.679 C 99.523 113.060,99.889 113.095,103.810 113.095 C 107.267 113.095,108.095 113.158,108.095 113.419 C 108.095 113.598,106.709 122.142,105.015 132.408 C 103.320 142.673,101.901 151.360,101.860 151.713 C 101.800 152.229,102.672 153.550,106.295 158.439 L 110.805 164.524 123.974 164.524 C 132.786 164.524,137.143 164.443,137.143 164.280 C 137.143 164.147,139.320 161.428,141.982 158.239 L 146.820 152.441 147.600 147.709 C 148.029 145.106,148.437 142.682,148.506 142.321 L 148.631 141.667 140.055 141.667 C 132.832 141.667,131.459 141.720,131.349 142.008 C 131.277 142.195,131.146 142.986,131.058 143.765 C 130.904 145.120,130.840 145.230,129.589 146.281 L 128.282 147.381 124.915 147.377 L 121.548 147.372 120.818 146.484 C 120.417 145.995,120.021 145.481,119.938 145.341 C 119.742 145.010,120.440 140.466,122.999 125.417 L 125.095 113.095 133.500 113.095 C 138.670 113.095,141.905 113.008,141.905 112.868 C 141.905 112.596,144.233 98.020,144.427 97.083 L 144.562 96.429 136.805 96.429 C 132.538 96.429,129.048 96.389,129.048 96.341 C 129.048 96.174,131.898 79.640,132.039 78.988 L 132.181 78.333 122.933 78.333 L 113.686 78.333 112.141 87.381 M283.697 78.869 C 283.498 79.749,269.523 164.379,269.523 164.702 C 269.524 164.935,271.445 165.000,278.333 165.000 C 283.179 165.000,287.143 164.920,287.143 164.822 C 287.143 164.166,294.343 119.810,294.495 119.531 C 294.600 119.338,295.957 118.294,297.512 117.209 L 300.337 115.238 305.862 115.238 L 311.386 115.238 312.598 117.506 C 313.264 118.753,313.810 119.979,313.810 120.231 C 313.810 120.584,307.397 160.724,306.781 164.229 L 306.644 165.006 315.046 164.944 L 323.448 164.881 327.900 137.143 C 330.349 121.887,332.359 109.176,332.367 108.896 C 332.375 108.589,330.581 106.012,327.849 102.408 L 323.318 96.429 313.471 96.429 L 303.625 96.429 300.969 98.568 C 297.588 101.293,297.286 101.464,297.473 100.557 C 297.748 99.216,300.952 79.116,300.952 78.729 C 300.952 78.367,300.216 78.333,292.385 78.333 L 283.819 78.333 283.697 78.869 M165.899 102.540 L 158.648 108.651 155.027 130.502 L 151.405 152.354 156.119 158.666 L 160.833 164.979 178.452 164.974 L 196.071 164.969 201.427 158.693 L 206.782 152.416 207.546 147.815 C 207.966 145.285,208.373 142.866,208.451 142.440 L 208.593 141.667 199.562 141.667 L 190.530 141.667 190.375 142.798 C 190.065 145.058,190.028 145.126,188.468 146.271 L 186.956 147.381 179.361 147.381 L 171.766 147.381 170.717 146.313 L 169.669 145.244 170.086 142.563 C 170.316 141.088,170.615 139.211,170.752 138.393 L 171.001 136.905 184.846 136.893 L 198.690 136.881 204.762 131.760 C 208.101 128.944,210.911 126.562,211.006 126.468 C 211.255 126.222,214.101 108.815,213.955 108.435 C 213.888 108.260,211.727 105.487,209.154 102.273 L 204.475 96.429 188.812 96.429 L 173.150 96.429 165.899 102.540 M225.476 102.374 C 220.653 106.588,218.637 108.496,218.507 108.973 C 218.100 110.458,211.411 151.590,211.486 152.143 C 211.531 152.471,213.705 155.498,216.317 158.870 L 221.068 165.000 238.610 165.000 L 256.152 165.000 261.638 158.708 L 267.124 152.416 267.978 147.458 C 268.448 144.731,268.888 142.313,268.956 142.083 C 269.072 141.691,268.515 141.667,259.556 141.667 C 250.689 141.667,250.024 141.695,249.915 142.083 C 249.850 142.313,249.671 143.283,249.517 144.241 L 249.238 145.982 247.786 147.039 L 246.333 148.095 238.671 148.095 L 231.008 148.095 230.147 147.142 C 229.062 145.942,228.902 147.699,231.667 130.524 C 232.976 122.389,234.048 115.628,234.048 115.498 C 234.048 115.368,234.731 114.775,235.566 114.179 L 237.084 113.095 244.911 113.103 L 252.738 113.110 253.398 114.197 C 254.079 115.318,254.101 115.672,253.668 118.512 L 253.550 119.286 263.060 119.286 L 272.570 119.286 272.826 117.798 C 272.966 116.979,273.361 114.555,273.704 112.410 L 274.327 108.510 272.755 106.219 C 271.890 104.959,270.029 102.268,268.620 100.238 L 266.058 96.548 249.160 96.497 L 232.262 96.446 225.476 102.374 M195.060 111.819 C 196.130 113.142,196.117 112.787,195.242 116.966 C 194.562 120.210,194.493 120.391,193.654 121.131 L 192.778 121.905 183.651 121.905 C 178.631 121.905,174.524 121.824,174.524 121.726 C 174.524 121.628,174.895 119.631,175.348 117.289 L 176.173 113.030 177.432 111.883 L 178.690 110.736 186.429 110.726 L 194.167 110.716 195.060 111.819 M218.946 176.454 C 218.884 176.636,217.646 182.893,216.193 190.357 C 214.741 197.821,213.497 204.116,213.427 204.345 C 213.315 204.718,213.503 204.762,215.222 204.762 C 216.278 204.762,217.144 204.735,217.145 204.702 C 217.158 204.282,220.214 187.564,220.292 187.486 C 220.352 187.426,222.158 191.394,224.307 196.303 C 226.456 201.212,228.274 205.230,228.348 205.233 C 228.421 205.236,230.242 201.225,232.395 196.321 C 234.548 191.417,236.373 187.479,236.451 187.571 C 236.530 187.663,237.210 191.274,237.963 195.595 C 238.716 199.917,239.389 203.747,239.458 204.107 L 239.583 204.762 243.304 204.757 L 247.024 204.752 248.562 201.305 L 250.099 197.857 256.190 197.857 L 262.282 197.857 263.819 201.305 L 265.357 204.752 267.341 204.757 C 268.471 204.760,269.291 204.666,269.246 204.539 C 268.929 203.650,256.284 176.202,256.190 176.200 C 256.125 176.199,253.232 182.419,249.762 190.023 C 246.292 197.628,243.393 203.887,243.320 203.934 C 243.247 203.980,241.965 197.757,240.469 190.104 C 238.974 182.452,237.694 176.194,237.625 176.197 C 237.556 176.201,235.464 180.907,232.976 186.654 C 230.488 192.401,228.381 197.032,228.295 196.944 C 228.208 196.857,226.133 192.179,223.685 186.548 C 218.846 175.421,219.108 175.978,218.946 176.454 M279.286 190.476 L 279.286 204.762 281.069 204.762 L 282.852 204.762 282.914 194.851 L 282.976 184.939 292.827 195.267 C 298.245 200.948,302.772 205.631,302.887 205.675 C 303.005 205.720,303.095 199.593,303.095 191.567 L 303.095 177.381 301.310 177.381 L 299.524 177.381 299.524 187.257 L 299.524 197.132 289.508 186.661 C 283.999 180.902,279.446 176.190,279.389 176.190 C 279.332 176.190,279.286 182.619,279.286 190.476 M194.979 177.141 C 182.318 180.344,180.015 197.810,191.489 203.602 C 203.340 209.584,216.066 198.530,211.683 186.061 C 209.454 179.720,201.524 175.486,194.979 177.141 M312.117 177.465 C 308.698 178.872,307.063 181.445,307.460 184.796 C 307.805 187.711,309.424 189.203,314.772 191.533 C 318.675 193.234,319.762 194.386,319.762 196.822 C 319.762 202.868,310.977 203.515,309.899 197.548 C 309.773 196.849,309.644 196.669,309.332 196.757 C 309.110 196.820,308.302 196.996,307.537 197.148 L 306.146 197.424 306.298 198.295 C 308.005 208.087,322.817 207.155,323.285 197.227 C 323.506 192.556,321.943 190.647,315.800 188.081 C 311.871 186.441,310.646 185.118,311.188 183.104 C 312.097 179.730,317.670 179.299,319.442 182.465 C 319.659 182.852,319.798 182.815,321.149 182.011 C 322.848 180.999,322.797 181.111,322.014 180.085 C 319.698 177.048,315.702 175.991,312.117 177.465 M161.905 191.109 L 161.905 204.837 166.250 204.689 C 177.480 204.307,182.712 199.942,182.712 190.952 C 182.712 181.840,177.054 177.381,165.490 177.381 L 161.905 177.381 161.905 191.109 M271.190 191.071 L 271.190 204.762 272.976 204.762 L 274.762 204.762 274.762 191.071 L 274.762 177.381 272.976 177.381 L 271.190 177.381 271.190 191.071 M202.046 180.888 C 209.251 183.662,211.218 193.106,205.733 198.590 C 199.850 204.474,190.092 201.775,187.984 193.682 C 185.819 185.368,194.104 177.829,202.046 180.888 M171.348 181.278 C 177.034 182.825,179.737 186.864,179.016 192.738 C 178.378 197.942,174.606 200.763,167.560 201.310 L 165.476 201.471 165.476 191.057 L 165.476 180.642 167.798 180.793 C 169.074 180.876,170.672 181.094,171.348 181.278 M258.524 189.464 L 260.692 194.405 258.441 194.473 C 257.203 194.510,255.177 194.510,253.939 194.473 L 251.688 194.405 253.851 189.464 C 255.041 186.747,256.092 184.524,256.185 184.524 C 256.279 184.524,257.332 186.747,258.524 189.464 " stroke="none" fill="#fcfcfc" fill-rule="evenodd"></path>
        <path id="path1" d="M81.071 138.574 C 70.167 140.069,65.560 153.812,73.333 161.659 C 81.925 170.332,96.667 164.320,96.667 152.143 C 96.667 143.699,89.455 137.424,81.071 138.574 " stroke="none" fill="#24b44c" fill-rule="evenodd"></path>
</svg>